<svg xmlns="http://www.w3.org/2000/svg" xmlns:xlink="http://www.w3.org/1999/xlink" version="1.1" width="1000" height="1000" viewBox="0 0 1000 1000" xml:space="preserve">
<desc>Created with Fabric.js 3.5.0</desc>
<defs>
</defs>
<rect x="0" y="0" width="100%" height="100%" fill="#ffffff"/>
<g transform="matrix(0.5469 0 0 0.5469 500.016 500.0044)" id="336639">
<g style="" vector-effect="non-scaling-stroke">
		<g transform="matrix(1 0 0 1 347.9512 183.6258)" clip-path="url(#CLIPPATH_1)">
<clipPath id="CLIPPATH_1">
	<rect transform="matrix(1 0 0 1 -347.9511 -183.6258)" id="clip0_1261_4020" x="-640" y="-176" rx="0" ry="0" width="1280" height="352"/>
</clipPath>
<path style="stroke: none; stroke-width: 1; stroke-dasharray: none; stroke-linecap: butt; stroke-dashoffset: 0; stroke-linejoin: miter; stroke-miterlimit: 4; is-custom-font: none; font-file-url: none; fill: rgb(66,66,69); fill-rule: nonzero; opacity: 1;" transform=" translate(-987.9511, -359.6258)" d="M 876.633 311.078 C 874.47 311.531 873.085 313.651 873.538 315.813 C 873.991 317.976 876.112 319.361 878.274 318.908 L 876.633 311.078 Z M 1006.56 347.846 L 1009.74 345.414 L 1006.56 347.846 Z M 1099.19 409.037 C 1101.36 408.629 1102.79 406.539 1102.38 404.367 C 1101.98 402.196 1099.89 400.766 1097.72 401.174 L 1099.19 409.037 Z M 878.274 318.908 C 892.805 315.862 916.681 313.79 940.724 317.537 C 964.803 321.29 988.449 330.777 1003.39 350.279 L 1009.74 345.414 C 993.04 323.614 967.058 313.545 941.956 309.632 C 916.816 305.714 891.956 307.866 876.633 311.078 L 878.274 318.908 Z M 1003.39 350.279 C 1008.31 356.704 1012.65 362.562 1016.6 367.893 C 1020.54 373.214 1024.09 378.035 1027.4 382.333 C 1033.99 390.89 1039.82 397.673 1046.15 402.53 C 1059.31 412.628 1073.85 413.792 1099.19 409.037 L 1097.72 401.174 C 1073.04 405.806 1061.41 404.154 1051.02 396.182 C 1045.57 392.004 1040.28 385.939 1033.74 377.453 C 1030.49 373.23 1026.99 368.481 1023.03 363.135 C 1019.08 357.8 1014.7 351.896 1009.74 345.414 L 1003.39 350.279 Z" stroke-linecap="round"/>
</g>
		<g transform="matrix(1 0 0 1 521.94 -2.1763)" clip-path="url(#CLIPPATH_2)">
<clipPath id="CLIPPATH_2">
	<rect transform="matrix(1 0 0 1 -521.94 2.1763)" id="clip0_1261_4020" x="-640" y="-176" rx="0" ry="0" width="1280" height="352"/>
</clipPath>
<path style="stroke: rgb(26,31,93); stroke-width: 8; stroke-dasharray: none; stroke-linecap: round; stroke-dashoffset: 0; stroke-linejoin: miter; stroke-miterlimit: 4; is-custom-font: none; font-file-url: none; fill: none; fill-rule: nonzero; opacity: 1;" transform=" translate(-1161.94, -173.8237)" d="M 1043.88 219.072 C 1079.16 222.514 1159.5 218.133 1198.58 173.077 C 1237.66 128.021 1269.14 124.892 1280 128.959" stroke-linecap="round"/>
</g>
		<g transform="matrix(1 0 0 1 -617.4346 -136.5758)" clip-path="url(#CLIPPATH_3)">
<clipPath id="CLIPPATH_3">
	<rect transform="matrix(1 0 0 1 617.4347 136.5758)" id="clip0_1261_4020" x="-640" y="-176" rx="0" ry="0" width="1280" height="352"/>
</clipPath>
<path style="stroke: rgb(66,66,69); stroke-width: 8; stroke-dasharray: none; stroke-linecap: round; stroke-dashoffset: 0; stroke-linejoin: miter; stroke-miterlimit: 4; is-custom-font: none; font-file-url: none; fill: none; fill-rule: nonzero; opacity: 1;" transform=" translate(-22.5653, -39.4242)" d="M 47.8137 78.8484 C 50.9155 60.0749 45.0221 18.0225 -3.36523 0" stroke-linecap="round"/>
</g>
		<g transform="matrix(1 0 0 1 -517.8685 130.005)" clip-path="url(#CLIPPATH_4)">
<clipPath id="CLIPPATH_4">
	<rect transform="matrix(1 0 0 1 517.8685 -130.005)" id="clip0_1261_4020" x="-640" y="-176" rx="0" ry="0" width="1280" height="352"/>
</clipPath>
<path style="stroke: rgb(26,31,93); stroke-width: 8; stroke-dasharray: none; stroke-linecap: round; stroke-dashoffset: 0; stroke-linejoin: miter; stroke-miterlimit: 4; is-custom-font: none; font-file-url: none; fill: none; fill-rule: nonzero; opacity: 1;" transform=" translate(-122.1315, -306.005)" d="M 0 352 C 5.04035 329.472 34.4295 285.917 111.663 291.925 C 188.897 297.932 232.244 273.152 244.263 260.01" stroke-linecap="round"/>
</g>
		<g transform="matrix(1 0 0 1 -475.7224 18.5316)" clip-path="url(#CLIPPATH_5)">
<clipPath id="CLIPPATH_5">
	<rect transform="matrix(1 0 0 1 475.7224 -18.5316)" id="clip0_1261_4020" x="-640" y="-176" rx="0" ry="0" width="1280" height="352"/>
</clipPath>
<path style="stroke: rgb(66,66,69); stroke-width: 8; stroke-dasharray: none; stroke-linecap: round; stroke-dashoffset: 0; stroke-linejoin: miter; stroke-miterlimit: 4; is-custom-font: none; font-file-url: none; fill: none; fill-rule: nonzero; opacity: 1;" transform=" translate(-164.2776, -194.5316)" d="M 166.387 172.049 C 153.95 175.608 133.102 187.735 149.205 207.774 C 165.189 227.664 179.592 210.899 184.926 199.807 C 185.006 199.641 185.055 199.475 185.074 199.297 C 185.814 192.667 183.982 180.716 170.806 183.957 C 157.453 187.242 162.296 195.729 166.387 199.561" stroke-linecap="round"/>
</g>
		<g transform="matrix(1 0 0 1 -562.4653 -21.4352)" clip-path="url(#CLIPPATH_6)">
<clipPath id="CLIPPATH_6">
	<rect transform="matrix(1 0 0 1 562.4654 21.4352)" id="clip0_1261_4020" x="-640" y="-176" rx="0" ry="0" width="1280" height="352"/>
</clipPath>
<path style="stroke: rgb(26,31,93); stroke-width: 4; stroke-dasharray: none; stroke-linecap: round; stroke-dashoffset: 0; stroke-linejoin: miter; stroke-miterlimit: 4; is-custom-font: none; font-file-url: none; fill: none; fill-rule: nonzero; opacity: 1;" transform=" translate(-77.5346, -154.5648)" d="M 87.8041 161.674 C 89.4877 154.978 89.4644 142.104 75.9013 144.181 C 62.4382 146.242 66.3282 157.379 70.0242 162.81 C 70.0792 162.891 70.1431 162.958 70.22 163.015 C 73.084 165.13 79.094 167.482 81.122 160.529 C 83.1773 153.483 77.962 153.449 75.0975 154.314" stroke-linecap="round"/>
</g>
		<g transform="matrix(1 0 0 1 414.9341 -169.5175)" clip-path="url(#CLIPPATH_7)">
<clipPath id="CLIPPATH_7">
	<rect transform="matrix(1 0 0 1 -414.9342 169.5175)" id="clip0_1261_4020" x="-640" y="-176" rx="0" ry="0" width="1280" height="352"/>
</clipPath>
<path style="stroke: rgb(26,31,93); stroke-width: 8; stroke-dasharray: none; stroke-linecap: round; stroke-dashoffset: 0; stroke-linejoin: miter; stroke-miterlimit: 4; is-custom-font: none; font-file-url: none; fill: none; fill-rule: nonzero; opacity: 1;" transform=" translate(-1054.9342, -6.4825)" d="M 1057.05 -16 C 1044.61 -12.4413 1023.76 -0.314181 1039.86 19.7243 C 1055.85 39.6152 1070.25 22.8494 1075.58 11.7577 C 1075.66 11.5921 1075.71 11.4255 1075.73 11.2477 C 1076.47 4.61818 1074.64 -7.3334 1061.47 -4.09192 C 1048.11 -0.806937 1052.96 7.67931 1057.05 11.5118" stroke-linecap="round"/>
</g>
</g>
</g>
</svg>