<svg width="1280" height="352" viewBox="0 0 1280 352" fill="none" xmlns="http://www.w3.org/2000/svg">
<g clip-path="url(#clip0_1261_4020)">
<path d="M876.633 311.078C874.47 311.531 873.085 313.651 873.538 315.813C873.991 317.976 876.112 319.361 878.274 318.908L876.633 311.078ZM1006.56 347.846L1009.74 345.414L1006.56 347.846ZM1099.19 409.037C1101.36 408.629 1102.79 406.539 1102.38 404.367C1101.98 402.196 1099.89 400.766 1097.72 401.174L1099.19 409.037ZM878.274 318.908C892.805 315.862 916.681 313.79 940.724 317.537C964.803 321.29 988.449 330.777 1003.39 350.279L1009.74 345.414C993.04 323.614 967.058 313.545 941.956 309.632C916.816 305.714 891.956 307.866 876.633 311.078L878.274 318.908ZM1003.39 350.279C1008.31 356.704 1012.65 362.562 1016.6 367.893C1020.54 373.214 1024.09 378.035 1027.4 382.333C1033.99 390.89 1039.82 397.673 1046.15 402.53C1059.31 412.628 1073.85 413.792 1099.19 409.037L1097.72 401.174C1073.04 405.806 1061.41 404.154 1051.02 396.182C1045.57 392.004 1040.28 385.939 1033.74 377.453C1030.49 373.23 1026.99 368.481 1023.03 363.135C1019.08 357.8 1014.7 351.896 1009.74 345.414L1003.39 350.279Z" fill="#424245"/>
<path d="M1043.88 219.072C1079.16 222.514 1159.5 218.133 1198.58 173.077C1237.66 128.021 1269.14 124.892 1280 128.959" stroke="#D0011B" stroke-width="8" stroke-linecap="round"/>
<path d="M47.8137 78.8484C50.9155 60.0749 45.0221 18.0225 -3.36523 0" stroke="#424245" stroke-width="8" stroke-linecap="round"/>
<path d="M0 352C5.04035 329.472 34.4295 285.917 111.663 291.925C188.897 297.932 232.244 273.152 244.263 260.01" stroke="#D0011B" stroke-width="8" stroke-linecap="round"/>
<path d="M166.387 172.049C153.95 175.608 133.102 187.735 149.205 207.774C165.189 227.664 179.592 210.899 184.926 199.807C185.006 199.641 185.055 199.475 185.074 199.297C185.814 192.667 183.982 180.716 170.806 183.957C157.453 187.242 162.296 195.729 166.387 199.561" stroke="#424245" stroke-width="8" stroke-linecap="round"/>
<path d="M87.8041 161.674C89.4877 154.978 89.4644 142.104 75.9013 144.181C62.4382 146.242 66.3282 157.379 70.0242 162.81C70.0792 162.891 70.1431 162.958 70.22 163.015C73.084 165.13 79.094 167.482 81.122 160.529C83.1773 153.483 77.962 153.449 75.0975 154.314" stroke="#D0011B" stroke-width="4" stroke-linecap="round"/>
<path d="M1057.05 -16C1044.61 -12.4413 1023.76 -0.314181 1039.86 19.7243C1055.85 39.6152 1070.25 22.8494 1075.58 11.7577C1075.66 11.5921 1075.71 11.4255 1075.73 11.2477C1076.47 4.61818 1074.64 -7.3334 1061.47 -4.09192C1048.11 -0.806937 1052.96 7.67931 1057.05 11.5118" stroke="#D0011B" stroke-width="8" stroke-linecap="round"/>
</g>
<defs>
<clipPath id="clip0_1261_4020">
<rect width="1280" height="352" fill="white"/>
</clipPath>
</defs>
</svg>