<?xml version="1.0" encoding="utf-8"?>
<!-- Generator: Adobe Illustrator 24.3.0, SVG Export Plug-In . SVG Version: 6.00 Build 0)  -->
<svg version="1.1" id="Layer_1" xmlns="http://www.w3.org/2000/svg" xmlns:xlink="http://www.w3.org/1999/xlink" x="0px" y="0px"
	 viewBox="0 0 512 512" style="enable-background:new 0 0 512 512;" xml:space="preserve">
<style type="text/css">
	.st0{fill:#82B541;}
</style>
<g id="XMLID_1_">
	<path id="XMLID_11_" class="st0" d="M65.54,217.24c-2.63-1.38-9.97-0.55-18.83,2.21c-15.5,10.66-28.65,26.3-29.62,51.36
		c-0.14,0.55-1.66-0.14-1.94-0.28c-4.15-8.03-5.81-16.47-2.35-28.65c0.69-1.11-1.52-2.49-1.8-2.08c-0.83,0.83-4.01,4.15-6.09,7.89
		c-10.52,18.27-3.6,41.81,14.81,52.05s41.81,3.6,52.05-14.81C83.67,263.61,72.6,221.12,65.54,217.24L65.54,217.24z"/>
	<path d="M131.7,227.48c-21.87,0-37.79,16.33-37.79,38.62c0,22.56,15.78,38.34,38.48,38.34c11.49,0,20.49-3.6,27.69-10.94
		c2.21-2.35,2.35-4.57,2.35-5.4c0-3.6-2.77-6.37-6.51-6.37c-1.94,0-3.46,0.69-5.26,2.35c-4.15,3.74-9.41,7.75-18.41,7.75
		c-12.46,0-22.56-9.27-23.12-21.32h49.42c5.4,0,8.03-2.49,8.03-7.61c0-1.52,0-2.63-0.28-4.84
		C163.68,238.97,150.67,227.48,131.7,227.48L131.7,227.48z M131.7,239.53c11.9,0,19.52,7.61,19.93,19.8h-42.36
		C110.39,247.97,119.94,239.53,131.7,239.53L131.7,239.53z"/>
	<path id="XMLID_8_" d="M213.79,227.48c-9.97,0-19.8,5.68-23.67,13.7v-4.85c0-7.61-5.95-8.03-7.06-8.03c-3.46,0-7.2,2.08-7.2,8.03
		v59.25c0,7.89,6.23,8.31,7.48,8.31c1.25,0,7.48-0.42,7.48-8.31v-31.7c0-13.84,7.89-23.53,19.1-23.53c10.8,0,16.2,7.06,16.2,21.73
		v33.5c0,7.89,6.23,8.31,7.48,8.31c1.25,0,7.48-0.42,7.48-8.31v-38.21C241.2,242.85,234,227.48,213.79,227.48L213.79,227.48z"/>
	<path id="XMLID_7_" d="M309.31,228.18c-3.46,0-5.95,2.08-7.48,5.95l-20.63,51.77l-20.49-51.77c-1.66-4.01-4.15-5.95-7.61-5.95
		c-4.15,0-7.48,3.18-7.48,7.2c0,0.97,0.14,2.21,0.97,4.29l23.67,55.92c2.77,6.78,7.48,8.17,10.8,8.17c3.46,0,8.03-1.38,10.8-8.17
		l23.81-56.2c0.83-1.94,0.97-3.46,0.97-4.15C316.78,231.22,313.6,228.18,309.31,228.18L309.31,228.18z"/>
	<path d="M353.05,227.48c-9.69,0-18.55,2.63-25.19,7.61c-2.21,1.52-3.32,3.46-3.32,5.95c0,3.32,2.63,5.95,5.81,5.95
		c1.38,0,3.05-0.55,4.43-1.52c5.68-3.88,11.07-5.54,16.89-5.54c11.07,0,17.58,5.68,17.58,15.5v1.66c-24.92,0-50.39,3.05-50.39,24.78
		c0,15.64,13.43,22.7,26.58,22.7c10.52,0,18.96-4.15,24.36-12.04v3.74c0,5.68,3.74,7.61,7.06,7.61c0.69,0,6.78-0.28,6.78-7.61
		v-39.87C383.64,238.28,372.29,227.48,353.05,227.48L353.05,227.48z M366.06,268.04h3.18v3.46c0,12.74-8.03,20.9-20.63,20.9
		c-3.46,0-14.4-0.83-14.4-10.94C334.22,269.43,352.36,268.04,366.06,268.04z"/>
	<path id="XMLID_4_" d="M422.96,241.88c6.64,0,6.92-5.12,6.92-6.09c0-3.05-1.8-6.37-6.92-6.37h-13.57v-13.7
		c0-6.09-4.01-8.31-7.34-8.31c-1.25,0-7.48,0.42-7.48,8.31v65.06c0,14.95,7.34,22.98,21.46,22.98c3.6,0,7.2-0.69,9.41-1.66
		c2.63-1.38,4.15-3.46,4.15-5.95c0-3.46-2.49-5.95-5.95-5.95c-0.69,0-1.66,0.14-2.63,0.42c-1.25,0.28-2.21,0.42-3.18,0.42
		c-5.68,0-8.31-3.74-8.31-11.77v-37.38L422.96,241.88L422.96,241.88z"/>
	<path d="M472.65,227.48c-22.7,0-39.31,16.2-39.31,38.34c0,10.8,4.01,20.63,11.21,27.82c7.2,7.06,17.17,10.94,27.96,10.94
		c22.43,0,39.45-16.61,39.45-38.62C512.1,243.68,495.49,227.48,472.65,227.48L472.65,227.48z M472.65,291.71
		c-15.64,0-23.81-13.01-23.81-25.89c0-17.72,12.32-25.75,23.81-25.75s23.81,8.03,23.81,25.75
		C496.46,283.69,484.14,291.71,472.65,291.71z"/>
</g>
</svg>
